<?xml version="1.0" standalone="no"?>
<!DOCTYPE svg PUBLIC "-//W3C//DTD SVG 20010904//EN"
 "http://www.w3.org/TR/2001/REC-SVG-20010904/DTD/svg10.dtd">
<svg version="1.0" xmlns="http://www.w3.org/2000/svg"
 width="500.000000pt" height="500.000000pt" viewBox="0 0 500.000000 500.000000"
 preserveAspectRatio="xMidYMid meet">

<g transform="translate(0.000000,500.000000) scale(0.100000,-0.100000)"
fill="#000000" stroke="none">
<path d="M2033 3189 c-37 -11 -79 -57 -105 -117 l-19 -42 -35 27 c-25 19 -51
28 -90 31 -54 4 -62 0 -45 -27 6 -9 18 -11 33 -8 13 3 29 2 36 -2 9 -5 0 -10
-26 -15 -28 -4 -48 -16 -66 -37 -29 -34 -38 -81 -11 -59 8 7 15 19 15 26 0 8
6 11 15 8 8 -4 17 1 21 9 3 9 17 15 33 15 15 -1 36 4 48 11 39 20 37 11 -5
-19 -52 -38 -76 -81 -67 -126 8 -45 24 -52 31 -15 4 17 10 31 14 31 5 0 23 29
42 65 18 36 34 61 36 55 5 -15 42 -12 48 5 5 12 12 10 36 -10 16 -14 38 -25
48 -25 10 0 20 -9 23 -21 5 -17 11 -20 31 -15 19 5 26 2 26 -8 0 -7 7 -20 17
-27 15 -13 16 -11 9 16 -8 34 -38 70 -79 95 -25 15 -26 18 -11 30 12 11 20 11
35 2 25 -16 44 -15 59 3 9 11 16 12 30 3 10 -6 25 -8 36 -3 16 6 13 10 -21 26
-49 22 -117 24 -176 4 l-44 -15 33 28 c17 16 32 34 32 41 0 8 6 11 15 7 9 -3
23 3 32 14 10 11 25 20 35 20 23 0 32 16 12 24 -20 8 -41 6 -81 -5z"/>
<path d="M1700 3065 c-10 -12 -10 -15 4 -15 9 0 16 7 16 15 0 8 -2 15 -4 15
-2 0 -9 -7 -16 -15z"/>
<path d="M3039 2819 c-6 -12 -14 -77 -17 -144 l-5 -123 27 -17 c33 -22 100
-15 129 13 27 28 14 42 -39 42 l-44 0 0 73 c0 154 -20 214 -51 156z"/>
<path d="M3464 2763 c-4 -16 -13 -36 -22 -45 -10 -12 -12 -22 -5 -30 6 -7 13
-32 16 -56 3 -24 13 -52 23 -63 20 -23 76 -25 94 -4 16 20 4 35 -29 35 -23 0
-30 5 -34 27 -7 35 -2 43 28 43 45 0 37 43 -10 52 -14 2 -21 12 -23 36 -4 40
-29 43 -38 5z"/>
<path d="M3252 2715 c-25 -32 -35 -85 -22 -119 13 -35 69 -60 105 -46 35 13
32 39 -5 47 -35 7 -40 23 -7 23 33 0 67 28 67 55 0 58 -101 87 -138 40z m86
-32 c2 -8 -6 -13 -22 -13 -25 0 -33 10 -19 24 10 10 36 3 41 -11z"/>
<path d="M3759 2701 c-54 -55 -27 -136 45 -134 54 2 43 -30 -27 -80 -24 -17
-12 -47 19 -47 13 0 38 13 56 29 33 29 33 30 36 133 4 104 4 104 -23 116 -42
19 -74 14 -106 -17z m81 -34 c0 -8 -9 -22 -20 -32 -19 -17 -20 -17 -26 0 -5
12 -1 23 11 31 24 18 35 18 35 1z"/>
<path d="M3957 2682 c-57 -60 -40 -123 37 -138 46 -8 82 14 103 63 18 44 6 79
-33 93 -45 17 -79 12 -107 -18z m81 -51 c-3 -28 -32 -41 -51 -22 -7 7 -5 18 7
35 21 32 48 24 44 -13z"/>
<path d="M1937 2549 c7 -7 15 -10 18 -7 3 3 -2 9 -12 12 -14 6 -15 5 -6 -5z"/>
<path d="M1990 2540 c8 -5 20 -10 25 -10 6 0 3 5 -5 10 -8 5 -19 10 -25 10 -5
0 -3 -5 5 -10z"/>
<path d="M2725 2454 c-44 -14 -144 -45 -223 -70 -78 -25 -140 -49 -137 -54 4
-6 12 -6 23 0 29 17 382 128 382 120 0 -4 -62 -47 -138 -96 l-138 -89 33 -55
c39 -65 40 -73 11 -94 -19 -14 -19 -15 -3 -7 11 5 40 27 65 48 39 35 41 40 25
47 -11 4 -16 4 -13 0 10 -10 -10 -44 -26 -44 -8 0 -16 14 -18 30 -4 27 -2 30
16 24 20 -6 20 -6 2 8 -18 14 -17 17 25 55 68 62 186 163 191 163 3 0 -5 -35
-18 -79 -12 -43 -26 -110 -30 -149 l-6 -71 -39 20 c-22 11 -39 17 -39 14 0 -6
81 -48 84 -43 2 2 8 44 14 95 7 50 23 125 37 165 14 40 25 76 25 81 0 11 -19
8 -105 -19z m0 -62 c-6 -4 -47 -41 -93 -82 -72 -63 -82 -77 -77 -97 8 -32 -10
-21 -30 17 l-15 29 102 70 c57 38 107 70 113 70 5 1 5 -2 0 -7z"/>
<path d="M1236 2447 c-3 -12 -6 -38 -6 -57 0 -19 -6 -61 -14 -92 -15 -65 -18
-62 59 -58 22 1 44 5 48 9 5 5 -9 8 -30 7 -43 -1 -42 -8 -29 125 6 63 5 77 -7
82 -10 4 -17 -2 -21 -16z"/>
<path d="M1464 2453 l-80 -4 -3 -67 c-8 -150 -10 -137 29 -134 47 4 70 11 70
22 0 5 -16 6 -35 3 -33 -5 -35 -4 -35 23 0 35 7 46 40 61 l25 12 -26 0 c-20 1
-28 7 -33 26 -10 39 0 45 66 45 l61 0 -7 -104 c-4 -64 -3 -107 3 -110 16 -10
23 12 30 103 9 100 13 111 47 111 13 0 24 5 24 10 0 6 -21 9 -47 8 -27 -1 -84
-4 -129 -5z"/>
<path d="M1865 2413 c-27 -41 -32 -89 -14 -141 20 -59 87 -55 119 8 40 79 14
170 -50 170 -23 0 -35 -9 -55 -37z m93 5 c17 -17 15 -103 -3 -137 -35 -68 -79
-40 -73 46 7 78 44 123 76 91z"/>
<path d="M1717 2429 c-57 -33 -65 -189 -9 -189 10 0 24 6 31 13 11 10 14 10
18 0 3 -7 8 -13 12 -13 8 0 31 67 31 89 0 14 -46 15 -55 1 -3 -5 1 -10 9 -10
22 0 20 -13 -4 -35 -29 -26 -50 -5 -50 51 0 63 45 105 78 72 7 -7 12 -8 12 -2
0 29 -40 42 -73 23z"/>
<path d="M2390 2316 c0 -3 9 -10 20 -16 11 -6 20 -8 20 -6 0 3 -9 10 -20 16
-11 6 -20 8 -20 6z"/>
<path d="M2450 2280 c8 -5 20 -10 25 -10 6 0 3 5 -5 10 -8 5 -19 10 -25 10 -5
0 -3 -5 5 -10z"/>
<path d="M1310 2076 c0 -73 4 -117 11 -122 19 -11 29 18 29 86 l1 65 29 -55
c16 -30 29 -62 30 -71 0 -9 7 -22 16 -30 23 -19 31 -1 38 100 7 88 1 141 -15
141 -10 0 -14 -17 -27 -105 l-8 -60 -40 79 c-56 114 -64 111 -64 -28z"/>
<path d="M1695 2163 c3 -10 13 -54 22 -98 8 -44 19 -86 25 -92 12 -15 28 -17
28 -4 0 5 7 26 17 47 l16 39 17 -55 c24 -83 41 -73 63 40 10 52 21 97 23 99 2
2 11 -2 21 -10 16 -13 10 -2 -23 49 -1 2 -10 -32 -19 -75 -24 -113 -26 -115
-45 -38 -20 83 -42 94 -50 25 -3 -25 -11 -53 -17 -64 -9 -16 -11 -11 -17 30
-14 94 -25 124 -47 124 -16 0 -19 -4 -14 -17z"/>
<path d="M1541 2144 c-12 -15 -26 -43 -32 -64 -10 -31 -8 -44 9 -83 18 -40 25
-47 50 -47 46 0 92 63 92 128 0 15 -9 42 -20 60 -26 42 -69 44 -99 6z m89 -9
c8 -10 11 -35 8 -71 -4 -42 -11 -61 -31 -81 -22 -22 -28 -24 -41 -13 -24 19
-21 107 4 148 21 35 41 40 60 17z"/>
<path d="M2360 2140 c0 -5 -9 -10 -20 -10 -29 0 -25 -34 5 -48 14 -7 37 -12
51 -12 37 0 27 -31 -16 -52 -23 -12 -28 -18 -16 -18 10 0 33 16 52 35 28 30
31 39 24 65 -5 16 -11 34 -15 40 -8 13 -65 13 -65 0z"/>
<path d="M1954 2111 c7 -11 46 -35 46 -28 0 3 -12 12 -26 22 -15 9 -23 12 -20
6z"/>
<path d="M2178 2088 c-2 -16 7 -31 31 -50 18 -16 37 -28 40 -28 3 0 -7 11 -24
24 -25 20 -27 26 -16 39 14 18 7 37 -14 37 -7 0 -15 -10 -17 -22z m32 2 c0 -5
-4 -10 -10 -10 -5 0 -10 5 -10 10 0 6 5 10 10 10 6 0 10 -4 10 -10z"/>
<path d="M2480 2090 c-8 -5 -10 -10 -5 -10 6 0 17 5 25 10 8 5 11 10 5 10 -5
0 -17 -5 -25 -10z"/>
<path d="M2108 2053 c12 -2 30 -2 40 0 9 3 -1 5 -23 4 -22 0 -30 -2 -17 -4z"/>
<path d="M2308 1993 c7 -3 16 -2 19 1 4 3 -2 6 -13 5 -11 0 -14 -3 -6 -6z"/>
</g>
</svg>
